<svg data-v-2747b27c="" width="28" height="28" viewBox="0 0 29 28" fill="none" xmlns="http://www.w3.org/2000/svg" class="ui-icon ">
    <g id="Icon">
        <g id="Icon_2">
            <path d="M1.5 12.5C1.5 7.25329 5.75329 3 11 3C16.2467 3 20.5 7.25329 20.5 12.5C20.5 14.853 19.6445 17.0062 18.2276 18.6656L24.2795 24.6993C24.5728 24.9917 24.5735 25.4666 24.2811 25.7599C23.9886 26.0532 23.5138 26.054 23.2204 25.7615L17.1671 19.7264C15.5075 21.144 13.3537 22 11 22C5.75329 22 1.5 17.7467 1.5 12.5ZM11 4.5C6.58172 4.5 3 8.08172 3 12.5C3 16.9183 6.58172 20.5 11 20.5C15.4183 20.5 19 16.9183 19 12.5C19 8.08172 15.4183 4.5 11 4.5Z" fill="#8B8E99"></path>
            <path d="M22.75 6.00003C22.3358 6.00003 22 6.33582 22 6.75003C22 7.16424 22.3358 7.50003 22.75 7.50003H26.75C27.1642 7.50003 27.5 7.16424 27.5 6.75003C27.5 6.33582 27.1642 6.00003 26.75 6.00003H22.75Z" fill="#8B8E99"></path>
            <path d="M22.75 11.75C22.3358 11.75 22 12.0858 22 12.5C22 12.9142 22.3358 13.25 22.75 13.25H26.75C27.1642 13.25 27.5 12.9142 27.5 12.5C27.5 12.0858 27.1642 11.75 26.75 11.75H22.75Z" fill="#8B8E99"></path>
            <path d="M22.75 17.5C22.3358 17.5 22 17.8358 22 18.25C22 18.6642 22.3358 19 22.75 19H26.75C27.1642 19 27.5 18.6642 27.5 18.25C27.5 17.8358 27.1642 17.5 26.75 17.5H22.75Z" fill="#8B8E99"></path>
        </g>
    </g>
</svg>
