<svg data-v-2747b27c="" width="28" height="28" viewBox="0 0 29 28" fill="none" xmlns="http://www.w3.org/2000/svg" class="ui-icon ">
    <g id="Icon">
        <g id="Icon_2">
            <path d="M14.5 3C11.4624 3 9 5.46243 9 8.5C9 11.5376 11.4624 14 14.5 14C17.5376 14 20 11.5376 20 8.5C20 5.46243 17.5376 3 14.5 3ZM10.5 8.5C10.5 6.29086 12.2909 4.5 14.5 4.5C16.7091 4.5 18.5 6.29086 18.5 8.5C18.5 10.7091 16.7091 12.5 14.5 12.5C12.2909 12.5 10.5 10.7091 10.5 8.5Z" fill="#8B8E99"></path>
            <path d="M14.5025 15C9.16883 15 4.5 19.0011 4.5 24C4.5 25.1046 5.39543 26 6.5 26H22.5C23.6046 26 24.5 25.1046 24.5 24C24.5 19.0057 19.8369 15 14.5025 15ZM6 24C6 19.9911 9.82583 16.5 14.5025 16.5C19.1783 16.5 23 19.9943 23 24C23 24.2761 22.7761 24.5 22.5 24.5H6.5C6.22386 24.5 6 24.2761 6 24Z" fill="#8B8E99"></path>
        </g>
    </g>
</svg>
