<svg width="24" height="24" viewBox="0 0 24 24" fill="none" xmlns="http://www.w3.org/2000/svg"><path d="M6 19.0009C10.002 19.0009 12 20.6542 12 20.6542V5.65C12 5.65 10 4 6 4C4.23282 4 2.96531 4.19987 2.37407 4.31704C2.15186 4.36108 2 4.55761 2 4.78414V18.7496C2 19.078 2.31256 19.3251 2.63604 19.2685C3.30039 19.1522 4.46062 19.0009 6 19.0009Z" fill="#FF5319"></path><path opacity="0.75" fill-rule="evenodd" clip-rule="evenodd" d="M14 4.63622C12.6673 5.10089 12 5.65 12 5.65V20.6542C12 20.6542 14.0033 19.0009 18.0053 19.0009C19.5429 19.0009 20.7002 19.1519 21.3634 19.2681C21.687 19.3248 21.9999 19.0776 21.9999 18.749V4.78378C21.9999 4.55742 21.8483 4.361 21.6262 4.3169C21.0363 4.19971 19.7717 4 18.0053 4C17.6549 4 17.3198 4.01266 17 4.03577V11L15.5 10L14 11V4.63622Z" fill="#FF5319"></path><path opacity="0.25" fill-rule="evenodd" clip-rule="evenodd" d="M17 4.03571V11L15.5 9.99999L14 11V4.63616C14.7751 4.3659 15.7752 4.1242 17 4.03571Z" fill="#FF5319"></path></svg>