<svg width="24" height="24" viewBox="0 0 24 24" fill="none" xmlns="http://www.w3.org/2000/svg"><path fill-rule="evenodd" clip-rule="evenodd" d="M10 2C8.48897 2 7.46882 2.54103 6.83144 3.22393C6.52451 3.55279 6.32433 3.89536 6.19898 4.18594C6.08886 4.44122 6 4.74216 6 5C6 5.55228 6.44772 6 7 6C7.52352 6 7.95308 5.5977 7.99641 5.08539C8.00036 5.0707 8.011 5.03468 8.0354 4.97812C8.08192 4.87027 8.16299 4.72846 8.29356 4.58857C8.53118 4.33397 9.01103 4 10 4H10.0117H10.0234H10.0351H10.0468H10.0585H10.0701H10.0817H10.0934H10.105H10.1166H10.1282H10.1398H10.1514H10.1629H10.1745H10.186H10.1975H10.2091H10.2206H10.2321H10.2435H10.255H10.2665H10.2779H10.2893H10.3008H10.3122H10.3236H10.3349H10.3463H10.3577H10.369H10.3804H10.3917H10.403H10.4143H10.4256H10.4368H10.4481H10.4594H10.4706H10.4818H10.493H10.5042H10.5154H10.5266H10.5378H10.5489H10.56H10.5712H10.5823H10.5934H10.6045H10.6155H10.6266H10.6377H10.6487H10.6597H10.6707H10.6817H10.6927H10.7037H10.7146H10.7256H10.7365H10.7474H10.7583H10.7692H10.7801H10.791H10.8019H10.8127H10.8235H10.8343H10.8451H10.8559H10.8667H10.8775H10.8882H10.899H10.9097H10.9204H10.9311H10.9418H10.9525H10.9631H10.9738H10.9844H10.995H11V5H13V4H13.0002H13.0072H13.0142H13.0212H13.0281H13.0351H13.042H13.0489H13.0558H13.0626H13.0695H13.0763H13.0831H13.0899H13.0967H13.1034H13.1102H13.1169H13.1236H13.1303H13.1369H13.1436H13.1502H13.1568H13.1634H13.1699H13.1765H13.183H13.1895H13.196H13.2025H13.2089H13.2154H13.2218H13.2282H13.2345H13.2409H13.2472H13.2535H13.2598H13.2661H13.2724H13.2786H13.2848H13.291H13.2972H13.3034H13.3095H13.3156H13.3217H13.3278H13.3339H13.3399H13.3459H13.3519H13.3579H13.3639H13.3698H13.3758H13.3817H13.3876H13.3934H13.3993H13.4051H13.4109H13.4167H13.4224H13.4282H13.4339H13.4396H13.4453H13.451H13.4566H13.4623H13.4679H13.4734H13.479H13.4846H13.4901H13.4956H13.5011H13.5065H13.512H13.5174H13.5228H13.5282H13.5336H13.5389H13.5442H13.5495H13.5548H13.5601H13.5653H13.5705H13.5757H13.5809H13.5861H13.5912H13.5963H13.6014H13.6065H13.6115H13.6166H13.6216H13.6266H13.6316H13.6365H13.6414H13.6463H13.6512H13.6561H13.661H13.6658H13.6706H13.6754H13.6801H13.6849H13.6896H13.6943H13.699H13.7036H13.7083H13.7129H13.7175H13.722H13.7266H13.7311H13.7356H13.7401H13.7446H13.749H13.7535H13.7579H13.7622H13.7666H13.7709H13.7753H13.7796H13.7838H13.7881H13.7923H13.7965H13.8007H13.8049H13.809H13.8131H13.8172H13.8213H13.8254H13.8294H13.8334H13.8374H13.8414H13.8453H13.8493H13.8532H13.857H13.8609H13.8647H13.8686H13.8724H13.8761H13.8799H13.8836H13.8873H13.891H13.8947H13.8983H13.9019H13.9055H13.9091H13.9126H13.9162H13.9197H13.9231H13.9266H13.93H13.9335H13.9369H13.9402H13.9436H13.9469H13.9502H13.9535H13.9568H13.96H13.9632H13.9664H13.9696H13.9727H13.9758H13.9789H13.982H13.9851H13.9881H13.9911H13.9941H13.9971H14C14.5523 4 15 3.55228 15 3C15 2.44772 14.5523 2 14 2H13.9971H13.9941H13.9911H13.9881H13.9851H13.982H13.9789H13.9758H13.9727H13.9696H13.9664H13.9632H13.96H13.9568H13.9535H13.9502H13.9469H13.9436H13.9402H13.9369H13.9335H13.93H13.9266H13.9231H13.9197H13.9162H13.9126H13.9091H13.9055H13.9019H13.8983H13.8947H13.891H13.8873H13.8836H13.8799H13.8761H13.8724H13.8686H13.8647H13.8609H13.857H13.8532H13.8493H13.8453H13.8414H13.8374H13.8334H13.8294H13.8254H13.8213H13.8172H13.8131H13.809H13.8049H13.8007H13.7965H13.7923H13.7881H13.7838H13.7796H13.7753H13.7709H13.7666H13.7622H13.7579H13.7535H13.749H13.7446H13.7401H13.7356H13.7311H13.7266H13.722H13.7175H13.7129H13.7083H13.7036H13.699H13.6943H13.6896H13.6849H13.6801H13.6754H13.6706H13.6658H13.661H13.6561H13.6512H13.6463H13.6414H13.6365H13.6316H13.6266H13.6216H13.6166H13.6115H13.6065H13.6014H13.5963H13.5912H13.5861H13.5809H13.5757H13.5705H13.5653H13.5601H13.5548H13.5495H13.5442H13.5389H13.5336H13.5282H13.5228H13.5174H13.512H13.5065H13.5011H13.4956H13.4901H13.4846H13.479H13.4734H13.4679H13.4623H13.4566H13.451H13.4453H13.4396H13.4339H13.4282H13.4224H13.4167H13.4109H13.4051H13.3993H13.3934H13.3876H13.3817H13.3758H13.3698H13.3639H13.3579H13.3519H13.3459H13.3399H13.3339H13.3278H13.3217H13.3156H13.3095H13.3034H13.2972H13.291H13.2848H13.2786H13.2724H13.2661H13.2598H13.2535H13.2472H13.2409H13.2345H13.2282H13.2218H13.2154H13.2089H13.2025H13.196H13.1895H13.183H13.1765H13.1699H13.1634H13.1568H13.1502H13.1436H13.1369H13.1303H13.1236H13.1169H13.1102H13.1034H13.0967H13.0899H13.0831H13.0763H13.0695H13.0626H13.0558H13.0489H13.042H13.0351H13.0281H13.0212H13.0142H13.0072H13.0002H12.9932H12.9861H12.979H12.9719H12.9648H12.9577H12.9506H12.9434H12.9362H12.929H12.9218H12.9146H12.9073H12.9001H12.8928H12.8855H12.8781H12.8708H12.8634H12.8561H12.8487H12.8412H12.8338H12.8264H12.8189H12.8114H12.8039H12.7964H12.7888H12.7813H12.7737H12.7661H12.7585H12.7509H12.7432H12.7356H12.7279H12.7202H12.7125H12.7047H12.697H12.6892H12.6814H12.6736H12.6658H12.6579H12.6501H12.6422H12.6343H12.6264H12.6185H12.6105H12.6026H12.5946H12.5866H12.5786H12.5705H12.5625H12.5544H12.5464H12.5383H12.5301H12.522H12.5139H12.5057H12.4975H12.4893H12.4811H12.4728H12.4646H12.4563H12.448H12.4397H12.4314H12.4231H12.4147H12.4064H12.398H12.3896H12.3811H12.3727H12.3642H12.3558H12.3473H12.3388H12.3303H12.3217H12.3132H12.3046H12.296H12.2874H12.2788H12.2702H12.2615H12.2528H12.2442H12.2355H12.2267H12.218H12.2093H12.2005H12.1917H12.1829H12.1741H12.1653H12.1564H12.1476H12.1387H12.1298H12.1209H12.1119H12.103H12.094H12.0851H12.0761H12.0671H12.058H12.049H12.04H12.0309H12.0218H12.0127H12.0036H11.9944H11.9853H11.9761H11.967H11.9578H11.9485H11.9393H11.9301H11.9208H11.9115H11.9023H11.893H11.8836H11.8743H11.8649H11.8556H11.8462H11.8368H11.8274H11.818H11.8085H11.7991H11.7896H11.7801H11.7706H11.7611H11.7515H11.742H11.7324H11.7229H11.7133H11.7036H11.694H11.6844H11.6747H11.6651H11.6554H11.6457H11.636H11.6262H11.6165H11.6067H11.597H11.5872H11.5774H11.5676H11.5577H11.5479H11.538H11.5281H11.5183H11.5083H11.4984H11.4885H11.4785H11.4686H11.4586H11.4486H11.4386H11.4286H11.4186H11.4085H11.3984H11.3884H11.3783H11.3682H11.358H11.3479H11.3378H11.3276H11.3174H11.3072H11.297H11.2868H11.2766H11.2663H11.2561H11.2458H11.2355H11.2252H11.2149H11.2045H11.1942H11.1838H11.1735H11.1631H11.1527H11.1423H11.1318H11.1214H11.1109H11.1005H11.09H11.0795H11.069H11.0584H11.0479H11.0374H11.0268H11.0162H11.0056H10.995H10.9844H10.9738H10.9631H10.9525H10.9418H10.9311H10.9204H10.9097H10.899H10.8882H10.8775H10.8667H10.8559H10.8451H10.8343H10.8235H10.8127H10.8019H10.791H10.7801H10.7692H10.7583H10.7474H10.7365H10.7256H10.7146H10.7037H10.6927H10.6817H10.6707H10.6597H10.6487H10.6377H10.6266H10.6155H10.6045H10.5934H10.5823H10.5712H10.56H10.5489H10.5378H10.5266H10.5154H10.5042H10.493H10.4818H10.4706H10.4594H10.4481H10.4368H10.4256H10.4143H10.403H10.3917H10.3804H10.369H10.3577H10.3463H10.3349H10.3236H10.3122H10.3008H10.2893H10.2779H10.2665H10.255H10.2435H10.2321H10.2206H10.2091H10.1975H10.186H10.1745H10.1629H10.1514H10.1398H10.1282H10.1166H10.105H10.0934H10.0817H10.0701H10.0585H10.0468H10.0351H10.0234H10.0117H10Z" fill="#1AB2FF"></path><path opacity="0.5" d="M9 6.5C9 5.67157 9.67157 5 10.5 5H13.5C14.3284 5 15 5.67157 15 6.5V8H9V6.5Z" fill="#1AB2FF"></path><path opacity="0.25" fill-rule="evenodd" clip-rule="evenodd" d="M9 8C7.34315 8 6 9.34315 6 11V19C6 20.6569 7.34315 22 9 22H15C16.6569 22 18 20.6569 18 19V11C18 9.34315 16.6569 8 15 8H9ZM12 18C13.6569 18 15 16.6569 15 15C15 13.3431 13.6569 12 12 12C10.3431 12 9 13.3431 9 15C9 16.6569 10.3431 18 12 18Z" fill="#1AB2FF"></path><path opacity="0.75" d="M15 15C15 16.6569 13.6569 18 12 18C10.3431 18 9 16.6569 9 15C9 13.3431 10.3431 12 12 12C13.6569 12 15 13.3431 15 15Z" fill="#1AB2FF"></path></svg>