<svg width="24" height="24" viewBox="0 0 24 24" fill="none" xmlns="http://www.w3.org/2000/svg"><path fill-rule="evenodd" clip-rule="evenodd" d="M12 13.25V10.8965C13.1543 10.57 14 9.50878 14 8.25V7.5H9.82843C9.34828 7.5 8.89608 7.61964 8.5 7.83074V8.25C8.5 9.68451 9.59838 10.8625 11 10.9888V13.125L12 13.25ZM3.95923 15.1691C4.41818 14.8619 5.03928 14.9849 5.34649 15.4438C6.78331 17.5903 9.22719 19.0001 11.9999 19.0001C14.7727 19.0001 17.2166 17.5903 18.6534 15.4438C18.9606 14.9849 19.5817 14.8619 20.0406 15.1691C20.4996 15.4763 20.6226 16.0974 20.3154 16.5564C18.5232 19.2338 15.468 21.0001 11.9999 21.0001C8.53185 21.0001 5.4767 19.2338 3.68448 16.5564C3.37726 16.0974 3.50027 15.4763 3.95923 15.1691ZM7.01062 10.0816C7.08521 9.21859 7.5474 8.4664 8.22222 8H7.5C5.567 8 4 9.567 4 11.5V12.5C4 12.7761 4.22386 13 4.5 13H5.5C5.77614 13 6 12.7761 6 12.5V11.5C6 10.8429 6.42248 10.2845 7.01062 10.0816Z" fill="#6226D9"></path><path opacity="0.6" fill-rule="evenodd" clip-rule="evenodd" d="M20.5 5C20.5 5 20.9356 4.56437 20.9936 4.09974C21.0005 4.04494 20.9552 4 20.9 4H17.5C15.567 4 14 5.567 14 7.5V8.25C14 9.50878 13.1543 10.57 12 10.8965V13.25L14 13.5V19H16V13.5C16 13.5 17.5 12.5 17.5 11V7.5L17.8331 7.83307C17.9428 7.94285 18.0256 8.07668 18.0747 8.22395L18.2208 8.66252C18.3803 9.14096 18.8711 9.42578 19.3656 9.32687L20.1961 9.16078C20.6635 9.06729 21 8.65692 21 8.18024V6C21 5.5 20.5 5 20.5 5ZM7 10.3284C7 9.24648 7.6075 8.30642 8.5 7.83074V8.25C8.5 9.68451 9.59838 10.8625 11 10.9888V13.125L10 13L9.5453 14.8188C9.51536 14.9386 9.50786 15.0628 9.52317 15.1854L10 19H8L7.52013 15.161C7.5068 15.0544 7.51075 14.9463 7.53183 14.8409L8 12.5L7.82843 12.3284C7.29799 11.798 7 11.0786 7 10.3284ZM19.5 7C19.7761 7 20 6.77614 20 6.5C20 6.22386 19.7761 6 19.5 6C19.2239 6 19 6.22386 19 6.5C19 6.77614 19.2239 7 19.5 7Z" fill="#6226D9"></path><path d="M20 6.5C20 6.77614 19.7761 7 19.5 7C19.2239 7 19 6.77614 19 6.5C19 6.22386 19.2239 6 19.5 6C19.7761 6 20 6.22386 20 6.5Z" fill="#6226D9"></path></svg>