<svg width="24" height="24" viewBox="0 0 24 24" fill="none" xmlns="http://www.w3.org/2000/svg">
  <path fill-rule="evenodd" clip-rule="evenodd" d="M19 4H21C21.5523 4 22 4.44772 22 5V11C22 11.5523 21.5523 12 21 12H13V13H11V11C11 10.4477 11.4477 10 12 10H20V6H19V4Z" fill="#6226D9"></path>
  <path opacity="0.75" d="M10 14C10 13.4477 10.4477 13 11 13H13C13.5523 13 14 13.4477 14 14V21C14 21.5523 13.5523 22 13 22H11C10.4477 22 10 21.5523 10 21V14Z" fill="#6226D9"></path>
  <path opacity="0.75" d="M4 3C4 2.44772 4.44772 2 5 2H18C18.5523 2 19 2.44772 19 3V7C19 7.55228 18.5523 8 18 8H5C4.44772 8 4 7.55228 4 7V3Z" fill="#6226D9"></path>
</svg>