<svg width="24" height="24" viewBox="0 0 24 24" fill="none" xmlns="http://www.w3.org/2000/svg">
  <path opacity="0.75" fill-rule="evenodd" clip-rule="evenodd" d="M12 21.4578C12.1915 21.4578 12.383 21.3921 12.5358 21.2605C12.9065 20.9414 13.369 20.5684 13.8889 20.149C16.9501 17.68 22 13.6069 22 9.5C22 6.3 19.45 4 16.5 4C13.65 4 12 6.33398 12 6.33398V21.4578Z" fill="#FF5319"></path>
  <path fill-rule="evenodd" clip-rule="evenodd" d="M12 6.33398C12 6.33398 10.3532 4 7.5 4C4.55 4 2 6.3 2 9.5C2 13.6073 7.05204 17.682 10.1127 20.1505C10.632 20.5693 11.094 20.9419 11.4642 21.2606C11.617 21.3921 11.8085 21.4578 12 21.4578V6.33398Z" fill="#FF5319"></path>
</svg>