<svg width="24" height="24" viewBox="0 0 24 24" fill="none" xmlns="http://www.w3.org/2000/svg"><path opacity="0.5" fill-rule="evenodd" clip-rule="evenodd" d="M22 12.5V12C22 6.47715 17.5228 2 12 2C6.25 2 2 6.75 2 12C2 16.75 5.75 22 12.5 22C13.35 22 14 21.35 14 20.5C14 19.75 13.75 19.375 13.5 19C13.25 18.625 13 18.25 13 17.5C13 16.65 13.65 16 14.5 16H18.5002C20.4332 16 22 14.433 22 12.5ZM8.75 8.5C9.7165 8.5 10.5 7.7165 10.5 6.75C10.5 5.7835 9.7165 5 8.75 5C7.7835 5 7 5.7835 7 6.75C7 7.7165 7.7835 8.5 8.75 8.5ZM7.5 11.7456C7.5 12.7121 6.7165 13.4956 5.75 13.4956C4.7835 13.4956 4 12.7121 4 11.7456C4 10.7791 4.7835 9.99561 5.75 9.99561C6.7165 9.99561 7.5 10.7791 7.5 11.7456ZM20 11.7456C20 12.7121 19.2165 13.4956 18.25 13.4956C17.2835 13.4956 16.5 12.7121 16.5 11.7456C16.5 10.7791 17.2835 9.99561 18.25 9.99561C19.2165 9.99561 20 10.7791 20 11.7456ZM17 6.75C17 7.7165 16.2165 8.5 15.25 8.5C14.2835 8.5 13.5 7.7165 13.5 6.75C13.5 5.7835 14.2835 5 15.25 5C16.2165 5 17 5.7835 17 6.75Z" fill="#FF5319"></path><path fill-rule="evenodd" clip-rule="evenodd" d="M10.5 6.75C10.5 7.7165 9.7165 8.5 8.75 8.5C7.7835 8.5 7 7.7165 7 6.75C7 5.7835 7.7835 5 8.75 5C9.7165 5 10.5 5.7835 10.5 6.75ZM5.75 13.4956C6.7165 13.4956 7.5 12.7121 7.5 11.7456C7.5 10.7791 6.7165 9.99561 5.75 9.99561C4.7835 9.99561 4 10.7791 4 11.7456C4 12.7121 4.7835 13.4956 5.75 13.4956ZM18.25 13.4956C19.2165 13.4956 20 12.7121 20 11.7456C20 10.7791 19.2165 9.99561 18.25 9.99561C17.2835 9.99561 16.5 10.7791 16.5 11.7456C16.5 12.7121 17.2835 13.4956 18.25 13.4956ZM15.25 8.5C16.2165 8.5 17 7.7165 17 6.75C17 5.7835 16.2165 5 15.25 5C14.2835 5 13.5 5.7835 13.5 6.75C13.5 7.7165 14.2835 8.5 15.25 8.5Z" fill="#FF5319"></path></svg>