<svg width="24" height="24" viewBox="0 0 24 24" fill="none" xmlns="http://www.w3.org/2000/svg">
  <path opacity="0.25" fill-rule="evenodd" clip-rule="evenodd" d="M9.5 21H14.5C14.2239 21 14 20.7761 14 20.5V15.5C14 15.2239 13.7761 15 13.5 15H10.5C10.2239 15 10 15.2239 10 15.5V20.5C10 20.7761 9.77614 21 9.5 21Z" fill="#FF5319"></path>
  <path opacity="0.75" d="M4 13L12 6L20 13V20.5C20 20.7761 19.7761 21 19.5 21H14.5C14.2239 21 14 20.7761 14 20.5V15.5C14 15.2239 13.7761 15 13.5 15H10.5C10.2239 15 10 15.2239 10 15.5V20.5C10 20.7761 9.77614 21 9.5 21H4.5C4.22386 21 4 20.7761 4 20.5V13Z" fill="#FF5319"></path>
  <path d="M2.32678 11.377C2.14614 11.1686 2.16835 10.8533 2.37643 10.6723L11.6725 2.58535C11.8607 2.42165 12.1407 2.42166 12.3289 2.58538L21.6234 10.6723C21.8315 10.8533 21.8537 11.1686 21.6731 11.377L21.0276 12.1216C20.8467 12.3303 20.5307 12.3528 20.3221 12.1717L12.3284 5.23402C12.1404 5.07085 11.861 5.07084 11.673 5.23399L3.67771 12.1717C3.46907 12.3528 3.15314 12.3303 2.9722 12.1216L2.32678 11.377Z" fill="#FF5319"></path>
</svg>