<svg width="24" height="24" viewBox="0 0 24 24" fill="none" xmlns="http://www.w3.org/2000/svg"><path opacity="0.75" fill-rule="evenodd" clip-rule="evenodd" d="M8.44444 7C6.22222 7 4 9.1875 4 12.25C4 16.1875 6.22222 21 8.88889 21C9.6229 21 10.2222 20.7348 10.761 20.4964C11.2009 20.3018 11.6005 20.125 12 20.125C12.3995 20.125 12.7991 20.3018 13.239 20.4964C13.7778 20.7348 14.3771 21 15.1111 21C17.7778 21 20 16.1875 20 12.25C20 9.1875 17.7778 7 15.5556 7C14.1943 7 13.5001 7.32834 12.9622 7.58276C12.622 7.74366 12.3444 7.875 12 7.875C11.6556 7.875 11.378 7.74366 11.0378 7.58276C10.4999 7.32834 9.80572 7 8.44444 7Z" fill="#40BF40"></path><path opacity="0.5" fill-rule="evenodd" clip-rule="evenodd" d="M14.9998 4C14.5972 4 14.1029 4.2186 13.685 4.68916C13.2751 5.15068 12.9998 5.79279 12.9998 6.5V7.5649C12.9871 7.57089 12.9745 7.57684 12.962 7.58276C12.6218 7.74366 12.3441 7.875 11.9998 7.875C11.6554 7.875 11.3777 7.74366 11.0375 7.58276C11.025 7.57684 11.0124 7.57089 10.9998 7.5649V6.5C10.9998 5.27422 11.4744 4.16632 12.1896 3.36109C12.8967 2.5649 13.9023 2 14.9998 2V4Z" fill="#40BF40"></path><path d="M9.99976 5.99983C7.39976 5.99983 5.99998 4.6 5.99998 2C8.59976 2 9.99976 3.4 9.99976 5.99983Z" fill="#40BF40"></path></svg>