<svg width="24" height="24" viewBox="0 0 24 24" fill="none" xmlns="http://www.w3.org/2000/svg"><circle opacity="0.75" cx="12" cy="12" r="10" fill="#FF9500"></circle><path fill-rule="evenodd" clip-rule="evenodd" d="M4.76542 5.09629C7.0151 5.34322 9.12445 6.05653 10.9947 7.13745C11.6371 5.89872 12 4.49174 12 3C12 2.66204 11.9814 2.32843 11.9451 2.00015C11.9634 2.00005 11.9817 2 12 2C12.6747 2 13.3337 2.06681 13.9709 2.19418C13.9902 2.46028 14 2.72899 14 3C14 4.90142 13.5176 6.69017 12.6684 8.25051C13.83 9.13272 14.8673 10.17 15.7495 11.3316C17.3098 10.4824 19.0986 10 21 10C21.271 10 21.5397 10.0098 21.8058 10.0291C21.9332 10.6663 22 11.3253 22 12C22 12.0183 21.9999 12.0366 21.9998 12.0549C21.6716 12.0186 21.338 12 21 12C19.5083 12 18.1013 12.3629 16.8626 13.0053C17.9435 14.8756 18.6568 16.9849 18.9037 19.2346C18.3288 19.7833 17.6887 20.2642 16.9961 20.6645C16.9402 18.2898 16.2931 16.0615 15.1963 14.121C13.2415 15.772 12 18.241 12 21C12 21.338 12.0186 21.6716 12.0549 21.9998C12.0366 21.9999 12.0183 22 12 22C11.3253 22 10.6663 21.9332 10.0291 21.8058C10.0098 21.5397 10 21.271 10 21C10 17.5453 11.5926 14.4626 14.0836 12.4459C13.3517 11.4989 12.5011 10.6483 11.5541 9.91637C9.53742 12.4074 6.45469 14 3 14C2.72899 14 2.46028 13.9902 2.19418 13.9709C2.06681 13.3337 2 12.6747 2 12C2 11.9817 2.00005 11.9634 2.00015 11.9451C2.32843 11.9814 2.66204 12 3 12C5.759 12 8.22804 10.7585 9.87896 8.80374C7.93848 7.70691 5.71016 7.0598 3.33555 7.00394C3.73579 6.31132 4.21669 5.67115 4.76542 5.09629Z" fill="#FF9500"></path></svg>