<svg width="24" height="24" viewBox="0 0 24 24" fill="none" xmlns="http://www.w3.org/2000/svg"><path opacity="0.5" fill-rule="evenodd" clip-rule="evenodd" d="M7 4C5.34315 4 4 5.34315 4 7V18C4 19.6569 5.34315 21 7 21H17C18.6569 21 20 19.6569 20 18V7C20 5.34315 18.6569 4 17 4H7ZM7 11C7 10.4477 7.44772 10 8 10H16C16.5523 10 17 10.4477 17 11C17 11.5523 16.5523 12 16 12H8C7.44772 12 7 11.5523 7 11ZM7 15C7 14.4477 7.44772 14 8 14H16C16.5523 14 17 14.4477 17 15C17 15.5523 16.5523 16 16 16H8C7.44772 16 7 15.5523 7 15Z" fill="#FF9500"></path><path fill-rule="evenodd" clip-rule="evenodd" d="M8 2C8.55228 2 9 2.44772 9 3V6C9 6.55228 8.55228 7 8 7C7.44772 7 7 6.55228 7 6V3C7 2.44772 7.44772 2 8 2ZM12 2C12.5523 2 13 2.44772 13 3V6C13 6.55228 12.5523 7 12 7C11.4477 7 11 6.55228 11 6V3C11 2.44772 11.4477 2 12 2ZM17 3C17 2.44772 16.5523 2 16 2C15.4477 2 15 2.44772 15 3V6C15 6.55228 15.4477 7 16 7C16.5523 7 17 6.55228 17 6V3Z" fill="#FF9500"></path><path opacity="0.75" fill-rule="evenodd" clip-rule="evenodd" d="M8 10C7.44772 10 7 10.4477 7 11C7 11.5523 7.44772 12 8 12H16C16.5523 12 17 11.5523 17 11C17 10.4477 16.5523 10 16 10H8ZM8 14C7.44772 14 7 14.4477 7 15C7 15.5523 7.44772 16 8 16H16C16.5523 16 17 15.5523 17 15C17 14.4477 16.5523 14 16 14H8Z" fill="#FF9500"></path></svg>