<svg width="24" height="24" viewBox="0 0 24 24" fill="none" xmlns="http://www.w3.org/2000/svg"><path opacity="0.5" d="M15.75 13.2532C14.7499 12.2521 14.5042 10 12 10C9.49578 10 8.74967 12.753 8.25 13.2532C7.75033 13.7534 5 14.5005 5 17.0069C5 19.5132 7.74609 20.7567 9.5 19.5093C11.2539 18.262 12.7461 18.2581 14.5 19.5093C16.2539 20.7606 19 19.5081 19 17.0069C19 14.5057 16.7501 14.2543 15.75 13.2532Z" fill="#76797F"></path><path fill-rule="evenodd" clip-rule="evenodd" d="M8.50005 3C7.25005 3 6.50005 4.25 6.50005 5.75C6.50005 7.25 7.50382 9.99929 9.50005 9.99929C10.75 9.99929 11.5 8.5 11.5 7C11.5 5.5 10.25 3 8.50005 3ZM15.5 3C16.75 3 17.5 4.25 17.5 5.75C17.5 7.25 16.4963 9.99929 14.5 9.99929C13.25 9.99929 12.5 8.5 12.5 7C12.5 5.5 13.75 3 15.5 3ZM22 9.69231C22 8.84288 21.3181 8 20.1813 8C18.3629 8 17 10.1154 17 11.3846C17 12.8654 17.9047 13.5 18.8174 13.5C20.3634 13.5 22 11.5962 22 9.69231ZM3.81865 8C2.68187 8 2 8.84288 2 9.69231C2 11.5962 3.63661 13.5 5.18264 13.5C6.09525 13.5 6.99995 12.8654 6.99995 11.3846C6.99995 10.1154 5.63712 8 3.81865 8Z" fill="#76797F"></path></svg>